Coordinates
version=1
nRows=12
nColumns=24
inDegrees=yes

Units are S.I. units (second, meters, Newtons, ...)
Angles are in degrees.

endheader
time	pelvis_tilt	pelvis_list	pelvis_rotation	pelvis_tx	pelvis_ty	pelvis_tz	hip_flexion_r	hip_adduction_r	hip_rotation_r	knee_angle_r	ankle_angle_r	subtalar_angle_r	mtp_angle_r	hip_flexion_l	hip_adduction_l	hip_rotation_l	knee_angle_l	ankle_angle_l	subtalar_angle_l	mtp_angle_l	lumbar_extension	lumbar_bending	lumbar_rotation
      4.69500000	    -18.33507343	     -5.18472783	     -0.77349900	     -0.86264106	     -0.02108219	     -0.30987784	     25.90530080	     10.73857484	     -2.96617263	    -22.33947549	      8.43696365	    -13.57119641	     -0.27030433	     34.44736754	     -9.04169559	     -4.34532999	    -61.46693708	     -6.71432221	     -7.49742717	     18.02053195	     22.25791185	      3.19958043	    -14.83531492
      4.70000000	    -18.34556887	     -4.79465035	     -1.03572358	     -0.85643166	     -0.01999564	     -0.30949728	     25.09986523	     10.48086577	     -2.52023951	    -21.73612223	      8.57103652	    -13.30662030	     -0.43850248	     35.02509519	     -8.79337087	     -4.81611198	    -60.73487266	     -6.10057832	     -7.51561431	     18.03267924	     22.23373506	      2.93791658	    -14.33870101
      4.70500000	    -18.39867844	     -4.39936703	     -1.25650169	     -0.85025664	     -0.01902385	     -0.30916763	     24.36927452	     10.18327666	     -2.18617216	    -21.15839549	      8.68310574	    -13.07270168	     -0.53969541	     35.64075067	     -8.51611891	     -5.23882479	    -59.93556069	     -5.49570570	     -7.41224091	     18.05059818	     22.25757889	      2.65088786	    -13.89145445
      4.71000000	    -18.41163500	     -4.03048091	     -1.52174508	     -0.84409439	     -0.01810644	     -0.30882589	     23.59143986	      9.92166701	     -1.77632203	    -20.57078425	      8.81271235	    -12.79650978	     -0.65320895	     36.19059515	     -8.30797046	     -5.72891715	    -59.08484785	     -4.94279274	     -7.35901224	     18.03566790	     22.23401122	      2.41629909	    -13.40373003
      4.71500000	    -18.45721901	     -3.66308948	     -1.74818253	     -0.83795618	     -0.01729325	     -0.30852906	     22.87472488	      9.63175806	     -1.47823265	    -20.00612504	      8.91425872	    -12.55450803	     -0.71976361	     36.76410941	     -8.08174092	     -6.17781520	    -58.16686251	     -4.41005453	     -7.21010360	     18.03745519	     22.24845199	      2.16298123	    -12.96839362
      4.72000000	    -18.48527096	     -3.31839480	     -1.99617176	     -0.83183208	     -0.01655389	     -0.30824186	     22.14283230	      9.36208973	     -1.16101522	    -19.43986425	      9.02661372	    -12.28424916	     -0.75811298	     37.29843439	     -7.90097251	     -6.65789364	    -57.19658873	     -3.91946916	     -7.07348527	     18.03490089	     22.24062967	      1.94567526	    -12.51856789
      4.72500000	    -18.50785253	     -2.99261502	     -2.24024167	     -0.82573715	     -0.01589339	     -0.30798594	     21.41716309	      9.09798213	     -0.87601430	    -18.88112039	      9.13449677	    -12.00920883	     -0.76628603	     37.80989065	     -7.74423413	     -7.14084014	    -56.16900156	     -3.46184486	     -6.90963726	     18.04261097	     22.22460542	      1.74814499	    -12.08074827
      4.73000000	    -18.52540242	     -2.68665618	     -2.48633411	     -0.81965490	     -0.01531336	     -0.30775387	     20.69515036	      8.84294207	     -0.62001152	    -18.32792208	      9.23752878	    -11.72189772	     -0.73912704	     38.29505289	     -7.61459510	     -7.62859891	    -55.08456552	     -3.03197806	     -6.72104380	     18.06600260	     22.20126752	      1.57260492	    -11.65082924
      4.73500000	    -18.53755011	     -2.40153857	     -2.73034046	     -0.81359737	     -0.01481184	     -0.30756026	     19.97724741	      8.59622527	     -0.39491558	    -17.78058886	      9.34116963	    -11.42338868	     -0.67139527	     38.75366788	     -7.51047225	     -8.12157589	    -53.94241505	     -2.62834702	     -6.50084287	     18.11013777	     22.16897473	      1.42233856	    -11.23076532
      4.74000000	    -18.52606885	     -2.14175812	     -2.98128061	     -0.80755127	     -0.01437188	     -0.30738965	     19.23727451	      8.36582069	     -0.17322640	    -17.23197291	      9.44623635	    -11.09957211	     -0.53896890	     39.16179610	     -7.43920230	     -8.62471074	    -52.74286682	     -2.24789329	     -6.27440813	     18.18207678	     22.10884908	      1.30145469	    -10.81958390
      4.74500000	    -18.54761403	     -1.89600412	     -3.21578762	     -0.80154134	     -0.01404186	     -0.30723169	     18.55305474	      8.13739410	     -0.04245478	    -16.70273671	      9.52427657	    -10.79072356	     -0.39272892	     39.58876765	     -7.37858202	     -9.10660927	    -51.49014448	     -1.87977531	     -5.94846214	     18.27802421	     22.07616052	      1.18045684	    -10.43093731
      4.75000000	    -18.52196729	     -1.67600163	     -3.46464227	     -0.79553214	     -0.01375223	     -0.30711680	     17.80954412	      7.92627106	      0.12762526	    -16.15578773	      9.63090964	    -10.44309787	     -0.14670670	     39.93504618	     -7.35343870	     -9.62005778	    -50.17942411	     -1.53564111	     -5.64396022	     18.41348793	     21.99336003	      1.09705691	    -10.04515763
